<svg id="SvgjsSvg1011" xmlns="http://www.w3.org/2000/svg" version="1.1" xmlns:xlink="http://www.w3.org/1999/xlink" xmlns:svgjs="http://svgjs.com/svgjs" width="60" height="60" viewBox="0 0 60 60"><title>Chat - MaterialIcons-Regular</title><desc>Created with Avocode.</desc><defs id="SvgjsDefs1012"></defs><path id="SvgjsPath1013" d="M1094.95 1216V1209.95H1130.95V1216ZM1094.95 1234V1227.95H1119V1234ZM1130.95 1218.95V1225H1094.95V1218.95ZM1088.91 1198C1087.3100000000002 1198 1085.93 1198.59 1084.76 1199.76C1083.59 1200.93 1083 1202.31 1083 1203.91V1257.91L1094.95 1245.95H1137C1138.59 1245.95 1139.98 1245.3400000000001 1141.15 1244.13C1142.3200000000002 1242.91 1142.91 1241.5 1142.91 1239.91V1203.91C1142.91 1202.3100000000002 1142.3200000000002 1200.93 1141.15 1199.76C1139.98 1198.59 1138.5900000000001 1198 1137 1198Z " fill="#ffffff" fill-opacity="1" transform="matrix(1,0,0,1,-1083,-1198)"></path></svg>