<svg id="SvgjsSvg1017" xmlns="http://www.w3.org/2000/svg" version="1.1" xmlns:xlink="http://www.w3.org/1999/xlink" xmlns:svgjs="http://svgjs.com/svgjs" width="49" height="63" viewBox="0 0 49 63"><title></title><desc>Created with Avocode.</desc><defs id="SvgjsDefs1018"></defs><path id="SvgjsPath1019" d="M885.33 1928.09V1922.05C885.33 1919.52 884.4100000000001 1917.34 882.59 1915.51C880.76 1913.68 878.58 1912.77 876.0500000000001 1912.77C873.5200000000001 1912.77 871.34 1913.68 869.5100000000001 1915.51C867.6800000000001 1917.34 866.7700000000001 1919.52 866.7700000000001 1922.05V1928.09ZM876.05 1955.09C877.64 1955.09 879.05 1954.48 880.27 1953.27C881.48 1952.05 882.09 1950.6399999999999 882.09 1949.05C882.09 1947.45 881.48 1946.05 880.27 1944.83C879.05 1943.61 877.64 1943 876.05 1943C874.4499999999999 1943 873.05 1943.61 871.8299999999999 1944.83C870.6099999999999 1946.05 869.9999999999999 1947.4499999999998 869.9999999999999 1949.05C869.9999999999999 1950.6399999999999 870.6099999999999 1952.05 871.8299999999999 1953.27C873.05 1954.48 874.4499999999999 1955.09 876.05 1955.09ZM894.05 1928.09C895.64 1928.09 897.05 1928.6799999999998 898.27 1929.85C899.48 1931.02 900.09 1932.4099999999999 900.09 1934V1964.09C900.09 1965.6899999999998 899.48 1967.07 898.27 1968.24C897.05 1969.41 895.64 1970 894.05 1970H858.05C856.4499999999999 1970 855.05 1969.41 853.8299999999999 1968.24C852.6099999999999 1967.07 851.9999999999999 1965.69 851.9999999999999 1964.09V1934C851.9999999999999 1932.41 852.6099999999999 1931.02 853.8299999999999 1929.85C855.05 1928.6799999999998 856.4499999999999 1928.09 858.05 1928.09H861V1922.05C861 1917.9199999999998 862.48 1914.3799999999999 865.43 1911.43C868.38 1908.48 871.92 1907 876.05 1907C880.17 1907 883.7099999999999 1908.48 886.66 1911.43C889.62 1914.38 891.0899999999999 1917.92 891.0899999999999 1922.05V1928.09Z " fill="#2b9cf2" fill-opacity="1" transform="matrix(1,0,0,1,-852,-1907)"></path></svg>