<svg id="SvgjsSvg1014" xmlns="http://www.w3.org/2000/svg" version="1.1" xmlns:xlink="http://www.w3.org/1999/xlink" xmlns:svgjs="http://svgjs.com/svgjs" width="60" height="60" viewBox="0 0 60 60"><title>public - MaterialIcons-Regular</title><desc>Created with Avocode.</desc><defs id="SvgjsDefs1015"></defs><path id="SvgjsPath1016" d="M893.67 1794.13C897.89 1789.6200000000001 900 1784.23 900 1777.95C900 1772.98 898.62 1768.48 895.85 1764.45C893.09 1760.42 889.45 1757.52 884.95 1755.73V1757C884.95 1758.59 884.34 1759.98 883.13 1761.15C881.91 1762.3200000000002 880.5 1762.91 878.91 1762.91H873V1768.95C873 1769.8 872.7 1770.5 872.09 1771.06C871.48 1771.6299999999999 870.75 1771.9099999999999 869.9100000000001 1771.9099999999999H864.0000000000001V1777.9499999999998H882.0000000000001C882.8400000000001 1777.9499999999998 883.5500000000001 1778.2299999999998 884.1100000000001 1778.7999999999997C884.6700000000001 1779.3599999999997 884.9500000000002 1780.0599999999997 884.9500000000002 1780.9099999999996V1789.9099999999996H887.9100000000002C890.7200000000001 1789.9099999999996 892.6400000000002 1791.3099999999997 893.6700000000002 1794.1299999999997ZM873 1801.72V1795.95C871.41 1795.95 870 1795.3400000000001 868.78 1794.13C867.56 1792.91 866.9499999999999 1791.5 866.9499999999999 1789.91V1786.95L852.6099999999999 1772.6100000000001C852.1399999999999 1774.48 851.9099999999999 1776.2700000000002 851.9099999999999 1777.95C851.9099999999999 1784.05 853.9499999999998 1789.3400000000001 858.0199999999999 1793.8400000000001C862.0999999999999 1798.3400000000001 867.0899999999999 1800.9700000000003 872.9999999999999 1801.7200000000003ZM875.95 1748C884.2 1748 891.26 1750.93 897.12 1756.79C902.98 1762.6499999999999 905.91 1769.7 905.91 1777.95C905.91 1786.2 902.98 1793.26 897.12 1799.1200000000001C891.26 1804.98 884.2 1807.91 875.95 1807.91C867.7 1807.91 860.6500000000001 1804.98 854.7900000000001 1799.1200000000001C848.9300000000001 1793.2600000000002 846.0000000000001 1786.2 846.0000000000001 1777.95C846.0000000000001 1769.7 848.9300000000001 1762.65 854.7900000000001 1756.79C860.6500000000001 1750.93 867.7 1748 875.95 1748Z " fill="#2b9cf2" fill-opacity="1" transform="matrix(1,0,0,1,-846,-1748)"></path></svg>