<svg id="SvgjsSvg1008" xmlns="http://www.w3.org/2000/svg" version="1.1" xmlns:xlink="http://www.w3.org/1999/xlink" xmlns:svgjs="http://svgjs.com/svgjs" width="49" height="63" viewBox="0 0 49 63"><title></title><desc>Created with Avocode.</desc><defs id="SvgjsDefs1009"></defs><path id="SvgjsPath1010" d="M729.33 1216.09V1210.05C729.33 1207.52 728.4100000000001 1205.34 726.59 1203.51C724.76 1201.68 722.58 1200.77 720.0500000000001 1200.77C717.5200000000001 1200.77 715.34 1201.68 713.5100000000001 1203.51C711.6800000000001 1205.34 710.7700000000001 1207.52 710.7700000000001 1210.05V1216.09ZM720.05 1243.09C721.64 1243.09 723.05 1242.48 724.27 1241.27C725.48 1240.05 726.09 1238.6399999999999 726.09 1237.05C726.09 1235.45 725.48 1234.05 724.27 1232.83C723.05 1231.61 721.64 1231 720.05 1231C718.4499999999999 1231 717.05 1231.61 715.8299999999999 1232.83C714.6099999999999 1234.05 713.9999999999999 1235.4499999999998 713.9999999999999 1237.05C713.9999999999999 1238.6399999999999 714.6099999999999 1240.05 715.8299999999999 1241.27C717.05 1242.48 718.4499999999999 1243.09 720.05 1243.09ZM738.05 1216.09C739.64 1216.09 741.05 1216.6799999999998 742.27 1217.85C743.48 1219.02 744.09 1220.4099999999999 744.09 1222V1252.09C744.09 1253.6899999999998 743.48 1255.07 742.27 1256.24C741.05 1257.41 739.64 1258 738.05 1258H702.05C700.4499999999999 1258 699.05 1257.41 697.8299999999999 1256.24C696.6099999999999 1255.07 695.9999999999999 1253.69 695.9999999999999 1252.09V1222C695.9999999999999 1220.41 696.6099999999999 1219.02 697.8299999999999 1217.85C699.05 1216.6799999999998 700.4499999999999 1216.09 702.05 1216.09H705V1210.05C705 1205.9199999999998 706.48 1202.3799999999999 709.43 1199.43C712.38 1196.48 715.92 1195 720.05 1195C724.17 1195 727.7099999999999 1196.48 730.66 1199.43C733.62 1202.38 735.0899999999999 1205.92 735.0899999999999 1210.05V1216.09Z " fill="#ffffff" fill-opacity="1" transform="matrix(1,0,0,1,-696,-1195)"></path></svg>