<svg id="SvgjsSvg1000" xmlns="http://www.w3.org/2000/svg" version="1.1" xmlns:xlink="http://www.w3.org/1999/xlink" xmlns:svgjs="http://svgjs.com/svgjs" width="62" height="62" viewBox="0 0 62 62"><title></title><desc>Created with Avocode.</desc><defs id="SvgjsDefs1001"></defs><path id="SvgjsPath1007" d="M323.86 1197C306.82 1197 293 1210.82 293 1227.86C293 1244.8899999999999 306.82 1258.7099999999998 323.86 1258.7099999999998C340.89 1258.7099999999998 354.71000000000004 1244.8899999999999 354.71000000000004 1227.86C354.71000000000004 1210.82 340.89000000000004 1197 323.86 1197ZM334.87 1217.93C335.31 1217.65 336.03000000000003 1217.29 336.59000000000003 1217.45C337.04 1217.57 337.40000000000003 1217.73 336.88000000000005 1218.0900000000001C336.63000000000005 1218.2500000000002 336.27000000000004 1218.0900000000001 335.99000000000007 1218.17C336.3500000000001 1218.25 336.88000000000005 1218.42 336.7100000000001 1218.78C337.7600000000001 1219.3799999999999 336.3900000000001 1220.1 335.7100000000001 1220.02C336.0300000000001 1220.06 335.0300000000001 1220.67 335.0300000000001 1220.6299999999999C334.6700000000001 1220.83 334.18000000000006 1220.83 333.9000000000001 1221.1899999999998C333.5800000000001 1221.6299999999999 334.0200000000001 1222.3899999999999 333.4200000000001 1222.2299999999998C333.18000000000006 1222.7499999999998 332.25000000000006 1222.4699999999998 331.8500000000001 1223.0399999999997C332.2900000000001 1223.5199999999998 331.4100000000001 1224.1999999999998 330.9700000000001 1223.5999999999997C330.5700000000001 1223.7599999999998 330.7700000000001 1224.1999999999996 330.37000000000006 1224.4399999999996C330.5300000000001 1224.6799999999996 330.57000000000005 1224.9199999999996 330.2900000000001 1225.0799999999997C330.37000000000006 1225.0399999999997 330.8500000000001 1225.4499999999996 330.9700000000001 1225.4899999999998C330.8900000000001 1225.6899999999998 330.7300000000001 1225.8499999999997 330.5300000000001 1225.8499999999997C330.7300000000001 1226.3699999999997 330.2900000000001 1226.9299999999996 329.9200000000001 1227.2499999999998C329.5200000000001 1227.5799999999997 328.6000000000001 1227.8999999999999 328.4800000000001 1227.9799999999998C327.75000000000006 1228.6599999999999 327.2700000000001 1229.6699999999998 328.56000000000006 1229.9499999999998C328.6000000000001 1229.9499999999998 328.6000000000001 1231.2699999999998 328.64000000000004 1231.3099999999997C328.72 1231.7899999999997 328.92 1233.1999999999998 328.08000000000004 1232.6799999999996C327.67 1232.4799999999996 327.43000000000006 1231.3499999999997 327.31000000000006 1230.9099999999996C327.19000000000005 1230.4299999999996 327.15000000000003 1230.4299999999996 326.83000000000004 1229.9499999999996C326.31000000000006 1230.5499999999995 326.23 1230.1099999999997 325.79 1229.8299999999997C325.34000000000003 1229.5799999999997 324.70000000000005 1229.6699999999996 324.46000000000004 1229.4199999999996C323.86 1229.8699999999997 323.42 1229.7499999999995 323.29 1229.0599999999997C323.13 1229.3799999999997 323.46000000000004 1229.8699999999997 323.42 1229.9899999999998C323.21000000000004 1230.3899999999999 322.85 1230.3099999999997 322.53000000000003 1230.0699999999997C322.01898000000006 1229.6769099999997 320.91885 1230.3268299999997 320.31155 1230.0836599999998C320.37528000000003 1230.1240399999997 320.5012 1230.2441399999998 320.6 1230.3099999999997C320.48 1230.7899999999997 320.20000000000005 1230.5099999999998 319.96000000000004 1230.6699999999996C319.68000000000006 1230.8699999999997 319.44000000000005 1231.2699999999995 319.20000000000005 1231.4699999999996C319.72 1232.4799999999996 319.16 1233.4399999999996 319.20000000000005 1234.5299999999995C319.20000000000005 1235.3299999999995 319.72 1236.7399999999996 320.48 1237.1799999999996C320.84000000000003 1237.3799999999997 322.05 1237.4599999999996 322.41 1237.2999999999995C322.97 1237.0599999999995 322.89000000000004 1236.6199999999994 323.09000000000003 1236.1299999999994C323.29 1235.6099999999994 323.54 1235.3699999999994 324.14000000000004 1235.3299999999995C325.87000000000006 1235.2499999999995 324.54 1236.6599999999994 324.34000000000003 1237.3799999999994C324.22 1237.8999999999994 324.18 1238.4999999999993 324.1 1238.9899999999993C324.3 1239.0699999999993 324.5 1239.0299999999993 324.70000000000005 1239.0299999999993C324.70000000000005 1238.8699999999992 324.82000000000005 1238.6699999999994 324.82000000000005 1238.5399999999993C325.06000000000006 1238.9499999999994 325.87000000000006 1239.0699999999993 326.11000000000007 1238.5799999999992C326.39000000000004 1239.0699999999993 326.95000000000005 1239.4299999999992 327.0300000000001 1239.9899999999993C327.11000000000007 1240.5499999999993 327.6300000000001 1241.1599999999994 326.87000000000006 1241.1599999999994C326.31000000000006 1241.1599999999994 326.95000000000005 1242.2799999999993 327.0300000000001 1242.4799999999993C327.4700000000001 1243.2899999999993 328.2000000000001 1243.6099999999994 329.0000000000001 1243.2099999999994C329.0000000000001 1243.5299999999993 328.8800000000001 1244.4099999999994 328.4400000000001 1244.4899999999993C328.0514800000001 1244.5676999999994 327.31389000000013 1243.7774599999993 327.41849000000013 1243.3288399999992C327.37017000000014 1243.4695599999993 327.26008000000013 1243.5766099999992 327.15000000000015 1243.6499999999992C326.75000000000017 1243.1699999999992 326.07000000000016 1242.9199999999992 325.71000000000015 1242.4399999999991C325.63081000000017 1242.3212099999992 324.56185000000016 1240.703079999999 324.77315000000016 1240.5928899999992C324.21083000000016 1240.8267499999993 323.08789000000013 1240.4288599999993 322.57000000000016 1240.1499999999992C321.7300000000002 1239.7099999999991 321.6100000000002 1238.5399999999993 320.5600000000002 1238.7099999999991C319.84000000000015 1238.829999999999 319.64000000000016 1239.1099999999992 318.7900000000002 1238.789999999999C318.2300000000002 1238.579999999999 317.75000000000017 1238.1799999999992 317.19000000000017 1237.899999999999C316.5400000000002 1237.539999999999 315.4200000000002 1237.179999999999 315.1800000000002 1236.379999999999C314.94000000000017 1235.7299999999989 315.02000000000015 1234.969999999999 314.6600000000002 1234.369999999999C314.4200000000002 1233.959999999999 313.69000000000017 1233.159999999999 313.1700000000002 1233.159999999999C313.6500000000002 1233.159999999999 312.7300000000002 1231.959999999999 312.6100000000002 1231.829999999999C312.1700000000002 1231.309999999999 310.5600000000002 1229.909999999999 310.88000000000017 1229.099999999999C310.96000000000015 1228.979999999999 310.08000000000015 1228.659999999999 309.9200000000002 1228.619999999999C310.0800000000002 1229.019999999999 310.1200000000002 1229.459999999999 310.32000000000016 1229.829999999999C310.52000000000015 1230.229999999999 310.76000000000016 1230.589999999999 311.00000000000017 1230.989999999999C311.44000000000017 1231.7099999999991 312.0400000000002 1232.599999999999 311.96000000000015 1233.479999999999C311.44000000000017 1233.6399999999992 311.60000000000014 1232.8799999999992 311.44000000000017 1232.559999999999C311.1600000000002 1232.039999999999 310.40000000000015 1232.039999999999 310.20000000000016 1231.4699999999991C310.28000000000014 1231.4299999999992 310.32000000000016 1231.4299999999992 310.40000000000015 1231.3899999999992C310.44000000000017 1230.7099999999991 309.4300000000001 1230.1499999999992 309.59000000000015 1229.6699999999992C309.03000000000014 1229.2199999999991 309.03000000000014 1228.3799999999992 308.63000000000017 1227.8199999999993C308.27000000000015 1227.2899999999993 307.6700000000002 1227.0499999999993 307.14000000000016 1226.6899999999991C306.9405600000002 1226.570329999999 305.50803000000013 1224.7303099999992 306.0156900000002 1224.601039999999C305.20858000000015 1224.793329999999 304.81021000000015 1222.919129999999 304.9300000000002 1222.4299999999992C304.9300000000002 1222.4299999999992 304.8500000000002 1222.4299999999992 304.8500000000002 1222.3899999999992C305.0094100000002 1221.9117699999993 304.7320600000002 1219.4383799999991 305.3728300000002 1219.3805399999992C304.9287300000002 1219.4083999999991 304.8106400000002 1218.3289299999992 304.9300000000002 1218.1299999999992C305.01000000000016 1217.9699999999991 305.6200000000002 1218.5799999999992 305.6600000000002 1218.6599999999992C305.9000000000002 1218.5399999999993 306.1400000000002 1218.2099999999991 306.0600000000002 1217.9299999999992C305.94000000000017 1217.6099999999992 305.50000000000017 1217.3299999999992 305.21000000000015 1217.0899999999992C305.09000000000015 1217.0099999999993 303.4900000000001 1215.9599999999991 303.45000000000016 1215.9999999999993C303.6100000000002 1215.7199999999993 303.57000000000016 1215.4399999999994 303.33000000000015 1215.2399999999993C302.5600000000002 1215.8399999999992 302.96000000000015 1214.6799999999994 302.5600000000002 1214.5599999999993C302.40000000000015 1214.5199999999993 302.2400000000002 1214.3999999999992 302.08000000000015 1214.2399999999993C304.41000000000014 1210.5399999999993 307.67000000000013 1207.4499999999994 311.52000000000015 1205.3199999999993C311.76000000000016 1205.2799999999993 312.08000000000015 1205.2799999999993 312.41000000000014 1205.2799999999993C313.13000000000017 1205.3599999999992 313.53000000000014 1205.9599999999994 314.0500000000001 1206.3199999999993C314.1300000000001 1206.1199999999992 313.97000000000014 1205.7999999999993 313.85000000000014 1205.5999999999992C313.97000000000014 1205.2799999999993 314.46000000000015 1205.1999999999991 314.7400000000001 1205.1199999999992C315.10000000000014 1205.0799999999992 315.6200000000001 1204.9999999999993 315.9400000000001 1205.1599999999992C315.7000000000001 1204.7899999999993 315.42000000000013 1204.4699999999991 315.1400000000001 1204.1499999999992C315.1000000000001 1204.1899999999991 314.9800000000001 1204.269999999999 314.9400000000001 1204.3499999999992C314.5000000000001 1203.9899999999993 313.6500000000001 1204.4699999999991 313.2500000000001 1204.6299999999992C312.9300000000001 1204.7899999999993 312.6500000000001 1204.999999999999 312.3300000000001 1205.1199999999992C312.1300000000001 1205.1999999999991 312.0000000000001 1205.1999999999991 311.8400000000001 1205.1599999999992C313.05000000000007 1204.509999999999 314.2900000000001 1203.9499999999991 315.62000000000006 1203.509999999999C315.85784000000007 1203.6685599999992 316.09567000000004 1203.9449599999991 316.45029000000005 1204.2224299999991C316.22001000000006 1204.0552799999991 316.22109000000006 1204.962189999999 316.30000000000007 1205.1199999999992C316.75000000000006 1205.7199999999991 317.7100000000001 1205.3199999999993 318.31000000000006 1205.3199999999993C318.27169000000004 1205.3199999999993 319.93059000000005 1205.5401799999993 319.75428000000005 1205.1721199999993C320.00066000000004 1205.5706299999993 320.01533000000006 1206.1353199999992 320.36000000000007 1206.4799999999993C320.7200000000001 1206.1199999999994 320.20000000000005 1205.7199999999993 320.44000000000005 1205.3599999999994C320.52000000000004 1205.1999999999994 321.25000000000006 1204.9999999999995 321.49000000000007 1204.8799999999994C321.77000000000004 1204.6699999999994 321.2900000000001 1204.3899999999994 321.1700000000001 1204.3099999999995C320.76000000000005 1204.0699999999995 319.20000000000005 1203.9499999999996 319.9600000000001 1203.0299999999995C320.24000000000007 1202.7099999999996 321.2500000000001 1202.8699999999994 321.5700000000001 1203.0699999999995C322.0100000000001 1203.3099999999995 322.4900000000001 1203.7499999999995 321.8900000000001 1204.1499999999994C322.1700000000001 1204.1899999999994 323.5000000000001 1204.5499999999995 323.2900000000001 1205.0799999999995C323.4200000000001 1204.8299999999995 323.62000000000006 1204.4699999999996 323.94000000000005 1204.4699999999996C324.30000000000007 1204.5099999999995 324.38000000000005 1205.3599999999997 324.5400000000001 1205.5599999999995C325.09571000000005 1206.5523399999995 326.0551700000001 1204.5806099999995 326.22618000000006 1204.6285299999995C325.50480000000005 1204.3487399999995 326.87063000000006 1203.9902099999995 327.2300000000001 1204.1099999999994C327.51000000000005 1204.2299999999993 327.9600000000001 1205.1999999999994 327.43000000000006 1205.1599999999994C327.88000000000005 1205.5599999999995 327.9200000000001 1206.4399999999994 327.11000000000007 1206.3999999999994C326.55000000000007 1206.3599999999994 325.9100000000001 1205.5999999999995 325.38000000000005 1206.1999999999994C325.02000000000004 1206.5999999999995 324.86000000000007 1207.2099999999994 324.50000000000006 1207.5699999999993C323.94000000000005 1208.1299999999992 323.1700000000001 1208.0899999999992 322.49000000000007 1208.0099999999993C322.77000000000004 1208.0499999999993 321.89000000000004 1208.9699999999993 321.81000000000006 1209.1299999999992C321.57000000000005 1209.4199999999992 321.4100000000001 1209.739999999999 321.33000000000004 1210.0599999999993C321.25000000000006 1210.4599999999994 321.33000000000004 1210.8999999999992 321.13000000000005 1211.2999999999993C321.81000000000006 1211.0999999999992 322.1700000000001 1212.3499999999992 321.89000000000004 1212.3899999999992C322.73 1212.2699999999993 323.42 1212.2699999999993 324.22 1212.5499999999993C324.78000000000003 1212.7499999999993 325.63000000000005 1212.9899999999993 325.87 1213.5899999999992C326.03000000000003 1213.3499999999992 326.79 1213.4699999999993 327.03000000000003 1213.5499999999993C327.51000000000005 1213.7899999999993 327.55 1214.3199999999993 327.67 1214.7599999999993C327.83000000000004 1215.3599999999992 328.36 1216.3699999999992 329.04 1216.0399999999993C329.16 1215.9599999999994 330.04 1215.5599999999993 329.72 1215.3199999999993C329.40000000000003 1215.0399999999993 329.04 1214.3199999999993 329.36 1213.9199999999992C329.68 1213.4699999999991 330.45 1213.3499999999992 330.65000000000003 1212.789999999999C330.97 1211.869999999999 329.68 1211.989999999999 329.68 1211.299999999999C329.68 1210.899999999999 330.21 1210.779999999999 330.17 1210.299999999999C330.17 1209.899999999999 329.56 1209.089999999999 330.04 1208.809999999999C330.45000000000005 1208.569999999999 332.38 1208.9699999999991 332.74 1209.2099999999991C333.1 1209.4599999999991 334.22 1209.779999999999 334.3 1210.1399999999992H334.1C334.42 1210.4199999999992 334.71000000000004 1211.0199999999993 334.14000000000004 1211.1799999999992C334.48177000000004 1211.1040499999992 335.44542000000007 1211.4607199999991 334.92609000000004 1211.7109499999992C335.12525000000005 1211.6471699999993 335.30271000000005 1211.6868399999992 335.51000000000005 1211.5399999999993C335.79 1211.3799999999992 335.95000000000005 1211.0999999999992 336.31000000000006 1211.2999999999993C336.39000000000004 1211.3399999999992 336.83000000000004 1210.4599999999994 337.08000000000004 1210.4999999999993C337.44000000000005 1210.5399999999993 337.52000000000004 1211.0599999999993 337.68000000000006 1211.2999999999993C337.8400000000001 1211.6699999999992 338.2800000000001 1211.7899999999993 338.44000000000005 1212.1499999999992C338.72 1212.8299999999992 338.6000000000001 1213.4699999999991 339.53000000000003 1213.7099999999991C339.81 1213.789999999999 340.57000000000005 1213.3499999999992 340.53000000000003 1213.9599999999991C340.69000000000005 1213.789999999999 340.77000000000004 1213.6699999999992 340.77000000000004 1213.6299999999992C340.81000000000006 1214.1999999999991 341.05 1214.8399999999992 341.74000000000007 1214.7599999999993C341.74000000000007 1214.7599999999993 341.74000000000007 1215.5199999999993 341.6600000000001 1215.6399999999994C341.4200000000001 1215.9999999999993 340.81000000000006 1215.9199999999994 340.4500000000001 1216.1299999999994C340.3309600000001 1216.1696799999995 339.3853600000001 1216.9965699999993 339.4873200000001 1217.1269699999993C338.95717000000013 1216.5299999999993 338.1188600000001 1216.5302699999993 337.4400000000001 1216.6899999999994C336.7100000000001 1216.8099999999993 336.0300000000001 1216.8899999999994 335.35000000000014 1217.1699999999994C335.03000000000014 1217.3299999999995 334.71000000000015 1217.4899999999993 334.46000000000015 1217.7699999999993C334.34000000000015 1217.9299999999994 334.14000000000016 1218.6599999999994 333.94000000000017 1218.6999999999994C334.34000000000015 1218.6199999999994 334.5400000000002 1218.1699999999994 334.8700000000002 1217.9299999999994ZM316.45029 1204.22243C316.45348 1204.22475 316.45672 1204.22727 316.46 1204.23C316.45675 1204.22748 316.45351999999997 1204.22495 316.45029 1204.22243ZM319.75428 1205.17212C319.74333 1205.1544099999999 319.73192 1205.13702 319.71999999999997 1205.12C319.73519 1205.1385599999999 319.74650999999994 1205.15591 319.75428 1205.17212ZM339.48732 1217.12697C339.48821000000004 1217.12798 339.48911000000004 1217.12899 339.49 1217.13C339.48904 1217.12904 339.48814 1217.12803 339.48732 1217.12697ZM328.32 1253.17C328.28 1252.97 328.24 1252.5700000000002 328.24 1252.53C328.2 1251.8799999999999 328.88 1251.44 328.84000000000003 1250.84C328.40000000000003 1250.72 328.28000000000003 1250.28 328.36 1249.79C328.44 1249.11 329.04 1248.6299999999999 329.52000000000004 1248.19C330.00000000000006 1247.75 330.13000000000005 1246.8200000000002 330.00000000000006 1246.26C329.80000000000007 1245.29 329.80000000000007 1244.29 329.64000000000004 1243.33C329.68000000000006 1243.57 330.37000000000006 1243.49 330.49000000000007 1243.81C330.6500000000001 1243.53 330.7300000000001 1243.1699999999998 330.93000000000006 1242.8799999999999C331.0900000000001 1242.6399999999999 331.37000000000006 1242.56 331.61000000000007 1242.36C332.01000000000005 1242.12 332.86000000000007 1241.1999999999998 333.3400000000001 1241.76C333.74000000000007 1242.24 332.74000000000007 1242.76 333.2600000000001 1243.21C333.42000000000013 1242.88 333.2600000000001 1242.4 333.5800000000001 1242.08C334.2200000000001 1241.36 334.6700000000001 1242.1599999999999 335.3100000000001 1242.36C335.9900000000001 1242.56 336.23000000000013 1242.8 336.7500000000001 1243.25C336.5900000000001 1243.08 337.4000000000001 1242.8 337.48000000000013 1242.76C338.2400000000001 1242.6 338.5600000000001 1243.04 339.08000000000015 1243.45C339.65000000000015 1243.8500000000001 340.53000000000014 1244.13 340.45000000000016 1244.93C340.85000000000014 1245.01 341.09000000000015 1245.13 341.4200000000002 1245.25C341.7400000000002 1245.42 342.1800000000002 1245.33 342.4200000000002 1245.58C338.7200000000002 1249.47 333.82000000000016 1252.21 328.32000000000016 1253.1699999999998Z " fill="#ffffff" fill-opacity="1" transform="matrix(1,0,0,1,-293,-1197)"></path></svg>