<svg id="SvgjsSvg1020" xmlns="http://www.w3.org/2000/svg" version="1.1" xmlns:xlink="http://www.w3.org/1999/xlink" xmlns:svgjs="http://svgjs.com/svgjs" width="60" height="60" viewBox="0 0 60 60"><title>Chat - MaterialIcons-Regular</title><desc>Created with Avocode.</desc><defs id="SvgjsDefs1021"></defs><path id="SvgjsPath1022" d="M893.95 2090V2083.95H857.95V2090ZM882 2108V2101.95H857.95V2108ZM857.95 2092.95V2099H893.95V2092.95ZM900 2072C901.59 2072 902.98 2072.59 904.15 2073.76C905.3199999999999 2074.9300000000003 905.91 2076.3100000000004 905.91 2077.9100000000003V2113.9100000000003C905.91 2115.5000000000005 905.3199999999999 2116.9100000000003 904.15 2118.13C902.98 2119.34 901.59 2119.9500000000003 900 2119.9500000000003H857.95L846 2131.9100000000003V2077.9100000000003C846 2076.3100000000004 846.59 2074.9300000000003 847.76 2073.76C848.93 2072.59 850.31 2072 851.91 2072Z " fill="#2b9cf2" fill-opacity="1" transform="matrix(1,0,0,1,-846,-2072)"></path></svg>